<svg xmlns="http://www.w3.org/2000/svg" viewBox="0 0 270 160" role="img" aria-labelledby="title desc">
    <title id="title">Cloudflare logo</title>
    <desc id="desc">Cloudflare orange cloud icon.</desc>
    <g fill="none" fill-rule="evenodd">
        <path fill="#F38020" d="M145.6 120.3c1.8-6.2 1.1-12-2-16.4-2.8-4.1-7.5-6.5-13.1-6.8l-107.2-1.4c-.7 0-1.3-.3-1.7-.8-.4-.5-.5-1.2-.3-1.8.3-.9 1.1-1.5 2-1.6l108.2-1.4c12.8-.6 26.6-10.9 31.5-23.6l6.2-16c.3-.8.4-1.6.2-2.4-7-31.6-35.2-55.2-68.9-55.2-31.1 0-57.4 20.1-66.8 48-6.1-4.6-13.7-7.3-21.9-7.3-20 0-36.2 16.2-36.2 36.2 0 3.6.5 7.1 1.5 10.3C-1.7 82.8-16.8 101.2-16.8 123c0 2 .1 4 .4 5.9.2 1.3 1.3 2.3 2.6 2.3h151.9c1.5 0 2.8-1 3.2-2.4l4.3-8.5z" transform="translate(25 18)"/>
        <path fill="#FAAE40" d="M179.7 50c-2.4 0-4.8.1-7.1.4-.8.1-1.5.7-1.8 1.5l-4.2 14.5c-1.8 6.2-1.1 12 2 16.4 2.8 4.1 7.5 6.5 13.1 6.8l22.8 1.4c.7 0 1.3.3 1.7.8.4.5.5 1.2.3 1.8-.3.9-1.1 1.5-2 1.6l-23.7 1.4c-12.9.6-26.6 10.9-31.5 23.6l-1.8 4.7c-.5 1.3.5 2.7 1.9 2.7h81.6c1.2 0 2.3-.8 2.6-2 1.7-5.8 2.6-11.9 2.6-18.2 0-31.9-25.8-57.8-57.7-57.8z" transform="translate(25 18)"/>
    </g>
</svg>
